<svg width="40" height="32" viewBox="0 0 40 32" fill="none" xmlns="http://www.w3.org/2000/svg">
<path d="M34 0H6C4.4087 0 2.88258 0.632141 1.75736 1.75736C0.632141 2.88258 0 4.4087 0 6V26C0 27.5913 0.632141 29.1174 1.75736 30.2426C2.88258 31.3679 4.4087 32 6 32H34C35.5913 32 37.1174 31.3679 38.2426 30.2426C39.3679 29.1174 40 27.5913 40 26V6C40 4.4087 39.3679 2.88258 38.2426 1.75736C37.1174 0.632141 35.5913 0 34 0ZM32.66 4L20 13.5L7.34 4H32.66ZM34 28H6C5.46957 28 4.96086 27.7893 4.58579 27.4142C4.21071 27.0391 4 26.5304 4 26V6.5L18.8 17.6C19.1462 17.8596 19.5673 18 20 18C20.4327 18 20.8538 17.8596 21.2 17.6L36 6.5V26C36 26.5304 35.7893 27.0391 35.4142 27.4142C35.0391 27.7893 34.5304 28 34 28Z" fill="white"/>
</svg>
