<svg width="37" height="37" viewBox="0 0 37 37" fill="none" xmlns="http://www.w3.org/2000/svg">
<path d="M18.9461 0.580872C14.0627 0.580872 13.454 0.604452 11.5429 0.685301C9.62385 0.779624 8.32579 1.07719 7.18044 1.52186C5.99915 1.98449 4.99304 2.59871 3.99927 3.59809C2.99877 4.59185 2.37894 5.59797 1.92304 6.77925C1.47838 7.9246 1.18081 9.22267 1.08648 11.1417C1.00002 13.054 0.982056 13.6615 0.982056 18.5449C0.982056 23.4284 1.00564 24.037 1.08648 25.9482C1.18081 27.8616 1.47838 29.1653 1.92304 30.3106C2.38567 31.4919 2.9999 32.498 3.99927 33.4918C4.99304 34.4923 5.99915 35.1121 7.18044 35.568C8.32579 36.0071 9.62947 36.3103 11.5429 36.4046C13.4552 36.4911 14.0627 36.509 18.9461 36.509C23.8296 36.509 24.4382 36.4854 26.3494 36.4046C28.2628 36.3103 29.5665 36.006 30.7118 35.568C31.8931 35.1054 32.8992 34.4912 33.893 33.4918C34.8935 32.498 35.5133 31.4975 35.9692 30.3106C36.4083 29.1653 36.7114 27.8616 36.8058 25.9482C36.8922 24.0359 36.9102 23.4284 36.9102 18.5449C36.9102 13.6615 36.8866 13.0529 36.8058 11.1417C36.7114 9.22828 36.4071 7.91787 35.9692 6.77925C35.5066 5.59797 34.8924 4.59185 33.893 3.59809C32.8992 2.59759 31.8987 1.97775 30.7118 1.52186C29.5665 1.07719 28.2628 0.779624 26.3494 0.685301C24.4371 0.598838 23.8296 0.580872 18.9461 0.580872ZM18.9461 3.81481C23.742 3.81481 24.3147 3.83839 26.2101 3.91924C27.9585 4.00121 28.9107 4.29316 29.5429 4.5402C30.3862 4.86696 30.9757 5.25324 31.6135 5.8843C32.239 6.50976 32.6252 7.10601 32.952 7.94931C33.199 8.5815 33.491 9.53371 33.573 11.2821C33.6538 13.1775 33.6774 13.7513 33.6774 18.5461C33.6774 23.3408 33.6538 23.9146 33.5662 25.8101C33.4719 27.5584 33.1799 28.5106 32.934 29.1428C32.5938 29.9861 32.2143 30.5756 31.5877 31.2134C30.9555 31.8389 30.3536 32.2252 29.5171 32.5519C28.8927 32.799 27.927 33.0909 26.172 33.1729C24.2664 33.2537 23.705 33.2773 18.8967 33.2773C14.0885 33.2773 13.5282 33.2537 11.6204 33.1662C9.87201 33.0718 8.90745 32.7799 8.27526 32.534C7.42186 32.1937 6.83683 31.8142 6.21025 31.1876C5.57806 30.5554 5.17607 29.9536 4.86615 29.117C4.61462 28.4927 4.32716 27.527 4.23396 25.7719C4.16995 23.8888 4.13964 23.3049 4.13964 18.5191C4.13964 13.7356 4.16995 13.1506 4.23396 11.2439C4.32716 9.4888 4.61462 8.52535 4.86615 7.89878C5.17607 7.04425 5.57919 6.46035 6.21025 5.82816C6.83571 5.20271 7.42186 4.79846 8.27526 4.48181C8.90745 4.23589 9.84843 3.94394 11.6035 3.85636C13.5091 3.78786 14.0705 3.76316 18.872 3.76316L18.9461 3.81481ZM18.9461 9.32485C13.8471 9.32485 9.72379 13.4537 9.72379 18.5472C9.72379 23.6463 13.8527 27.7695 18.9461 27.7695C24.0452 27.7695 28.1685 23.6406 28.1685 18.5472C28.1685 13.4481 24.0396 9.32485 18.9461 9.32485ZM18.9461 24.5356C15.6358 24.5356 12.9577 21.8575 12.9577 18.5472C12.9577 15.2369 15.6358 12.5588 18.9461 12.5588C22.2564 12.5588 24.9345 15.2369 24.9345 18.5472C24.9345 21.8575 22.2564 24.5356 18.9461 24.5356ZM30.6961 8.95654C30.6961 10.1502 29.7248 11.1136 28.5368 11.1136C27.3431 11.1136 26.3797 10.1491 26.3797 8.95654C26.3797 7.76964 27.3499 6.80395 28.5368 6.80395C29.7237 6.80395 30.6961 7.76964 30.6961 8.95654Z" fill="white"/>
</svg>
