<svg width="37" height="37" viewBox="0 0 37 37" fill="none" xmlns="http://www.w3.org/2000/svg">
<path d="M34.249 0.580872H3.63422C2.17015 0.580872 0.982025 1.74105 0.982025 3.16969V33.9167C0.982025 35.3473 2.17015 36.509 3.63422 36.509H34.249C35.7141 36.509 36.9102 35.3473 36.9102 33.9167V3.16969C36.9102 1.74105 35.7141 0.580872 34.249 0.580872ZM11.6377 31.1966H6.30638V14.0514H11.6377V31.1966ZM8.97204 11.7071C7.26396 11.7071 5.88322 10.3229 5.88322 8.6163C5.88322 6.91221 7.26396 5.52798 8.97204 5.52798C10.6761 5.52798 12.0604 6.91221 12.0604 8.6163C12.0604 10.3229 10.6761 11.7071 8.97204 11.7071ZM31.5958 31.1966H26.2729V22.8593C26.2729 20.8703 26.234 18.3129 23.503 18.3129C20.7295 18.3129 20.3069 20.4791 20.3069 22.7151V31.1971H14.98V14.0514H20.0923V16.3927H20.1652C20.8767 15.0454 22.6153 13.6238 25.2081 13.6238C30.6003 13.6238 31.5963 17.1737 31.5963 21.7919L31.5958 31.1966Z" fill="white"/>
</svg>
