<svg width="1100" height="200" viewBox="0 0 1100 200" fill="none" xmlns="http://www.w3.org/2000/svg">
<rect width="200" height="200" rx="20" fill="#191E27"/>
<path d="M184.708 42.3606C184.708 27.8021 172.906 16 158.347 16H42.3606C27.8021 16 16 27.8021 16 42.3606V158.347C16 172.906 27.8021 184.708 42.3606 184.708H158.347C172.906 184.708 184.708 172.906 184.708 158.347V42.3606Z" fill="black"/>
<path d="M100.266 100.354C100.266 92.5893 106.561 86.2944 114.325 86.2944C122.09 86.2944 128.384 92.5893 128.384 100.354C128.384 108.118 122.09 114.413 114.325 114.413C106.561 114.413 100.266 108.118 100.266 100.354Z" fill="#1ABCFE"/>
<path d="M72.148 128.472C72.148 120.708 78.4424 114.413 86.2072 114.413H100.266V128.472C100.266 136.237 93.9719 142.531 86.2072 142.531C78.4424 142.531 72.148 136.237 72.148 128.472Z" fill="#0ACF83"/>
<path d="M100.266 58.1769V86.2947H114.325C122.09 86.2947 128.384 80.0003 128.384 72.236C128.384 64.4713 122.09 58.1769 114.325 58.1769H100.266Z" fill="#FF7262"/>
<path d="M72.148 72.236C72.148 80.0003 78.4424 86.2947 86.2072 86.2947H100.266V58.1769H86.2072C78.4424 58.1769 72.148 64.4713 72.148 72.236Z" fill="#F24E1E"/>
<path d="M72.148 100.354C72.148 108.118 78.4424 114.413 86.2072 114.413H100.266V86.2944H86.2072C78.4424 86.2944 72.148 92.5893 72.148 100.354Z" fill="#A259FF"/>
<rect x="300" width="200" height="200" rx="20" fill="#191E27"/>
<path d="M460.439 48.4091L449.467 171.327L400.146 185L350.961 171.346L340 48.4091H460.439Z" fill="#E44D26"/>
<path d="M400.22 174.549L440.073 163.5L449.45 58.4609H400.22V174.549Z" fill="#F16529"/>
<path d="M378.89 88.6166H400.22V73.5387H362.412L362.773 77.5838L366.478 119.134H400.22V104.056H380.268L378.89 88.6166Z" fill="#EBEBEB"/>
<path d="M382.288 126.673H367.152L369.265 150.347L400.15 158.921L400.22 158.902V143.215L400.153 143.232L383.361 138.698L382.288 126.673Z" fill="#EBEBEB"/>
<path d="M351.206 15H358.868V22.5703H365.877V15H373.54V37.9248H365.878V30.2482H358.868V37.9248H351.206L351.206 15Z" fill="black"/>
<path d="M383.616 22.6022H376.87V15H398.027V22.6022H391.279V37.9248H383.616L383.616 22.6022Z" fill="black"/>
<path d="M401.385 15H409.375L414.29 23.0551L419.199 15H427.192V37.9248H419.561V26.562L414.29 34.713H414.158L408.883 26.562V37.9248H401.385V15Z" fill="black"/>
<path d="M431.005 15H438.67V30.3471H449.445V37.9248H431.005V15Z" fill="black"/>
<path d="M400.167 119.134H418.734L416.984 138.689L400.167 143.228V158.914L431.078 150.347L431.304 147.8L434.847 108.105L435.215 104.057H400.167V119.134Z" fill="white"/>
<path d="M400.167 88.5797V88.6166H436.587L436.89 85.2275L437.577 77.5838L437.937 73.5387H400.167V88.5797Z" fill="white"/>
<rect x="600" width="200" height="200" rx="20" fill="#191E27"/>
<path d="M700.146 185L650.961 171.346L640 48.4091H760.439L749.467 171.327L700.146 185Z" fill="#264DE4"/>
<path d="M740.073 163.5L749.45 58.4609H700.22V174.549L740.073 163.5Z" fill="#2965F1"/>
<path d="M665.127 104.056L666.478 119.134H700.22V104.056H665.127Z" fill="#EBEBEB"/>
<path d="M662.412 73.5388L663.782 88.6167H700.22V73.5388H662.412Z" fill="#EBEBEB"/>
<path d="M700.219 143.215L700.153 143.232L683.361 138.698L682.288 126.673H667.152L669.265 150.347L700.15 158.921L700.219 158.902V143.215Z" fill="#EBEBEB"/>
<path d="M668.345 15H686.606V22.6367H675.981V30.2734H686.606V37.9102H668.345V15Z" fill="black"/>
<path d="M690.259 15H708.52V21.6406H697.895V22.9688H708.52V38.2422H690.259V31.2695H700.884V29.9414H690.259V15Z" fill="black"/>
<path d="M712.173 15H730.434V21.6406H719.809V22.9688H730.434V38.2422H712.173V31.2695H722.798V29.9414H712.173V15Z" fill="black"/>
<path d="M735.215 104.056L737.937 73.5388H700.167V88.6167H721.413L720.041 104.056H700.167V119.134H718.734L716.984 138.689L700.167 143.228V158.914L731.077 150.347L731.304 147.8L734.847 108.105L735.215 104.056Z" fill="white"/>
<rect x="900" width="200" height="200" rx="20" fill="#191E27"/>
<path d="M999.526 176.052C1044 176.052 1080.05 139.999 1080.05 95.5262C1080.05 51.053 1044 15 999.526 15C955.053 15 919 51.053 919 95.5262C919 139.999 955.053 176.052 999.526 176.052Z" fill="url(#paint0_linear_56_70)"/>
<path opacity="0.2" d="M1008.53 50.8778L996.153 73.316L970.945 134.147L960.268 165.725L960.46 165.917C972.41 172.557 985.855 176.045 999.526 176.053C1017.09 176.035 1034.16 170.278 1048.15 159.657C1062.13 149.036 1072.26 134.134 1076.99 117.223L1008.53 50.8778Z" fill="url(#paint1_linear_56_70)"/>
<path opacity="0.15" d="M1079.96 92.9058C1079.47 113.923 1070.79 133.918 1055.76 148.619C1040.73 163.319 1020.55 171.56 999.526 171.579C978.632 171.565 958.562 163.431 943.554 148.895C928.546 134.358 919.776 114.557 919.096 93.6747C919.057 94.2917 919.025 94.9092 919 95.527C919 116.884 927.484 137.366 942.585 152.467C957.687 167.569 978.169 176.053 999.526 176.053C1020.88 176.053 1041.36 167.569 1056.47 152.467C1071.57 137.366 1080.05 116.884 1080.05 95.527C1080.03 94.6528 1080 93.7789 1079.96 92.9058Z" fill="black"/>
<path d="M996.386 65.4155L984.763 72.126L1045.16 176.733L1057.68 185L1056.78 170.022L996.386 65.4155Z" fill="#DCDCDC"/>
<path d="M1048.74 86.5426C1048.74 104.474 1043.41 108.728 1036.92 116.306C1033.57 120.167 1029.64 123.446 1025.12 125.923C1019 129.348 1009.69 131.242 1002.19 131.242C994.685 131.242 987.617 129.275 981.57 125.923C977.158 122.369 968.21 135.79 974.138 137.55C982.444 142.213 992.062 144.737 1002.26 144.737C1012.46 144.737 1024.32 142.213 1032.62 137.55C1037.07 135.072 1041.15 132.012 1044.72 128.515C1055.5 118.023 1062.28 102.865 1062.28 86.6169C1057.68 86.5721 1052.82 86.6168 1048.74 86.5721V86.5426Z" fill="#C3C3C3"/>
<path d="M1002.66 65.4155L1014.28 72.126L953.89 176.733L941.368 185L942.267 170.022L1002.66 65.4155Z" fill="#C3C3C3"/>
<path d="M1013.46 64.2111H1008.47V50.8608V50.7893H999.489H990.579V50.8608V64.2111H985.523C980.94 64.2111 977.158 67.998 977.158 72.5285V94.4296H977.23C977.158 95.149 977.594 95.94 978.54 96.8745L995.343 111.696C996.507 112.846 998.035 113.421 999.49 113.421V113.35L999.562 113.421C1001.09 113.421 1002.62 112.846 1003.71 111.696L1020.51 96.8745C1021.46 95.94 1021.82 95.077 1021.82 94.4296H1021.89V72.6006C1021.82 67.9985 1018.11 64.2111 1013.46 64.2111Z" fill="url(#paint2_linear_56_70)"/>
<path d="M999.555 91.0534H999.497C994.601 91.0534 990.579 87.0709 990.579 82.1656C990.579 77.2597 994.601 73.2772 999.497 73.2772V73.1609L999.555 73.2772C1004.45 73.3354 1008.47 77.2597 1008.47 82.1656C1008.47 87.0709 1004.45 90.9956 999.555 91.0534Z" fill="url(#paint3_radial_56_70)"/>
<defs>
<linearGradient id="paint0_linear_56_70" x1="1004" y1="176.052" x2="1004" y2="15" gradientUnits="userSpaceOnUse">
<stop stop-color="#3B962D"/>
<stop offset="1" stop-color="#93D169"/>
</linearGradient>
<linearGradient id="paint1_linear_56_70" x1="981.631" y1="64.2114" x2="1062.16" y2="144.737" gradientUnits="userSpaceOnUse">
<stop/>
<stop offset="1" stop-opacity="0"/>
</linearGradient>
<linearGradient id="paint2_linear_56_70" x1="999.526" y1="113.421" x2="999.526" y2="50.7893" gradientUnits="userSpaceOnUse">
<stop stop-color="#272B2D"/>
<stop offset="1" stop-color="#3E4447"/>
</linearGradient>
<radialGradient id="paint3_radial_56_70" cx="0" cy="0" r="1" gradientUnits="userSpaceOnUse" gradientTransform="translate(999.526 82.1051) scale(8.94733 8.94623)">
<stop stop-color="#ACACAC"/>
<stop offset="1" stop-color="#CBCBCB"/>
</radialGradient>
</defs>
</svg>
