<svg width="37" height="37" viewBox="0 0 37 37" fill="none" xmlns="http://www.w3.org/2000/svg">
<path d="M31.529 6.20286C28.1687 2.8346 23.6937 0.982056 18.9381 0.982056C9.12199 0.982056 1.1344 8.96965 1.1344 18.7857C1.1344 21.9214 1.95241 24.9849 3.50822 27.6876L0.982025 36.9102L10.4212 34.4321C13.0196 35.8516 15.9467 36.5974 18.9301 36.5974H18.9381C28.7461 36.5974 36.9102 28.6098 36.9102 18.7938C36.9102 14.0381 34.8892 9.57113 31.529 6.20286ZM18.9381 33.5981C16.2755 33.5981 13.6691 32.8843 11.3996 31.537L10.8623 31.2162L5.26453 32.6838L6.75619 27.2224L6.40333 26.6611C4.91969 24.3033 4.14178 21.5846 4.14178 18.7857C4.14178 10.6297 10.7821 3.98943 18.9461 3.98943C22.8998 3.98943 26.6129 5.52921 29.4038 8.32808C32.1946 11.1269 33.9108 14.8401 33.9028 18.7938C33.9028 26.9578 27.0941 33.5981 18.9381 33.5981ZM27.054 22.5149C26.6129 22.2903 24.4235 21.2157 24.0145 21.0713C23.6055 20.919 23.3088 20.8468 23.0121 21.2959C22.7153 21.745 21.8653 22.7394 21.6006 23.0442C21.344 23.3409 21.0793 23.381 20.6382 23.1565C18.0238 21.8492 16.3076 20.8227 14.5834 17.8635C14.1263 17.0775 15.0405 17.1337 15.8906 15.4335C16.035 15.1368 15.9628 14.8802 15.8505 14.6556C15.7382 14.4311 14.848 12.2417 14.4791 11.3515C14.1183 10.4854 13.7493 10.6057 13.4767 10.5896C13.22 10.5736 12.9233 10.5736 12.6266 10.5736C12.3299 10.5736 11.8487 10.6859 11.4397 11.1269C11.0307 11.576 9.88386 12.6507 9.88386 14.8401C9.88386 17.0294 11.4798 19.1466 11.6963 19.4433C11.9209 19.7401 14.832 24.2311 19.299 26.1638C22.1219 27.3828 23.2286 27.4871 24.6401 27.2786C25.4982 27.1503 27.2705 26.2039 27.6394 25.1614C28.0083 24.1188 28.0083 23.2286 27.8961 23.0442C27.7918 22.8437 27.4951 22.7314 27.054 22.5149Z" fill="white"/>
</svg>
